<svg width="20" height="16" viewBox="0 0 20 16" fill="none" xmlns="http://www.w3.org/2000/svg">
<path fill-rule="evenodd" clip-rule="evenodd" d="M2.99994 0.000183105C2.44766 0.000183105 1.99996 0.447889 1.99996 1.00016C1.99996 1.55243 2.44766 2.00014 2.99994 2.00014H9.99979V11.9999H7.82826C7.68051 11.582 7.44057 11.198 7.12117 10.8786C6.55857 10.316 5.79553 9.99997 4.99989 9.99997C4.40656 9.99997 3.82656 10.1759 3.33322 10.5056C2.83988 10.8352 2.45537 11.3037 2.22831 11.8519C2.20805 11.9008 2.18912 11.9502 2.17153 11.9999H1.99996V8.99999C1.99996 8.44772 1.55225 8.00001 0.999979 8.00001C0.447706 8.00001 0 8.44772 0 8.99999V11.9999C0 12.5303 0.210709 13.039 0.585774 13.4141C0.96084 13.7892 1.46954 13.9999 1.99996 13.9999H2.17152C2.32006 14.42 2.56098 14.8035 2.87862 15.1212C3.29817 15.5407 3.8327 15.8264 4.41464 15.9422C4.99657 16.058 5.59975 15.9985 6.14792 15.7715C6.69609 15.5444 7.16461 15.1599 7.49425 14.6666C7.63362 14.458 7.74552 14.2339 7.82826 13.9999H12.1713C12.3198 14.42 12.5608 14.8035 12.8784 15.1212C13.298 15.5407 13.8325 15.8264 14.4144 15.9422C14.9964 16.058 15.5995 15.9985 16.1477 15.7715C16.6959 15.5444 17.1644 15.1599 17.494 14.6666C17.6334 14.458 17.7453 14.2339 17.828 13.9999H17.9996C18.53 13.9999 19.0387 13.7892 19.4138 13.4141C19.7889 13.039 19.9996 12.5303 19.9996 11.9999V7.82208C20.0089 7.37115 19.8654 6.93012 19.5923 6.57076C19.3161 6.20734 18.9239 5.94935 18.4809 5.83961L18.4792 5.83918L17.8115 5.67225L17.2149 3.46876C17.2142 3.4661 17.2134 3.46345 17.2127 3.46079C17.0917 3.0282 16.8286 2.64892 16.4658 2.38408C16.1088 2.12348 15.6758 1.9886 15.2344 2.00014H11.9997C11.9997 1.46972 11.789 0.961022 11.414 0.585957C11.0389 0.210893 10.5302 0.000183105 9.99979 0.000183105H2.99994ZM17.8281 11.9999H17.9996V7.81002C17.9996 7.80031 17.9998 7.7906 18 7.7809L17.9971 7.78016L16.7571 7.47017C16.4056 7.38229 16.1291 7.11113 16.0344 6.76139L15.2866 3.99942C15.2743 3.99987 15.262 4.0001 15.2497 4.0001H11.9997V11.9999H12.1713C12.1889 11.9502 12.2078 11.9008 12.2281 11.8519C12.4552 11.3037 12.8397 10.8352 13.333 10.5056C13.8263 10.1759 14.4064 9.99997 14.9997 9.99997C15.7953 9.99997 16.5584 10.316 17.121 10.8786C17.4404 11.198 17.6803 11.582 17.8281 11.9999ZM4.44434 12.1685C4.60878 12.0586 4.80212 11.9999 4.99989 11.9999C5.2651 11.9999 5.51945 12.1053 5.70699 12.2928C5.89452 12.4803 5.99987 12.7347 5.99987 12.9999C5.99987 13.1977 5.94123 13.391 5.83135 13.5555C5.72147 13.7199 5.56529 13.8481 5.38257 13.9238C5.19985 13.9995 4.99879 14.0193 4.80481 13.9807C4.61083 13.9421 4.43265 13.8468 4.2928 13.707C4.15295 13.5671 4.05771 13.389 4.01913 13.195C3.98054 13.001 4.00035 12.8 4.07603 12.6172C4.15172 12.4345 4.27989 12.2783 4.44434 12.1685ZM14.4441 12.1685C14.6086 12.0586 14.8019 11.9999 14.9997 11.9999C15.2649 11.9999 15.5192 12.1053 15.7068 12.2928C15.8943 12.4803 15.9997 12.7347 15.9997 12.9999C15.9997 13.1977 15.941 13.391 15.8311 13.5555C15.7213 13.7199 15.5651 13.8481 15.3824 13.9238C15.1996 13.9995 14.9986 14.0193 14.8046 13.9807C14.6106 13.9421 14.4324 13.8468 14.2926 13.707C14.1527 13.5671 14.0575 13.389 14.0189 13.195C13.9803 13.001 14.0001 12.8 14.0758 12.6172C14.1515 12.4345 14.2797 12.2783 14.4441 12.1685Z" fill="#B12EFF"/>
<path d="M0.999979 4.0001C0.447706 4.0001 0 4.4478 0 5.00008C0 5.55235 0.447706 6.00006 0.999979 6.00006H6.99985C7.55212 6.00006 7.99983 5.55235 7.99983 5.00008C7.99983 4.4478 7.55212 4.0001 6.99985 4.0001H0.999979Z" fill="#B12EFF"/>
</svg>
