<svg width="20" height="20" viewBox="0 0 20 20" fill="none" xmlns="http://www.w3.org/2000/svg">
<path fill-rule="evenodd" clip-rule="evenodd" d="M8.00016 1C8.00016 0.447715 8.44789 0 9.00018 0H13.0003C13.5526 0 14.0003 0.447715 14.0003 1C14.0003 1.55228 13.5526 2 13.0003 2H10.9998H9.00018C8.44789 2 8.00016 1.55228 8.00016 1ZM10.9998 2C6.40943 2 2.623 5.43564 2.06925 9.87626C2.00091 10.4243 2.38979 10.924 2.93784 10.9923C3.48589 11.0607 3.98557 10.6718 4.05392 10.1237C4.48439 6.67174 7.43087 4 10.9998 4C14.8659 4 18 7.134 18 11C18 14.866 14.8659 18 10.9998 18H6.00012C5.44782 18 5.0001 18.4477 5.0001 19C5.0001 19.5523 5.44782 20 6.00012 20H10.9998C15.9705 20 20 15.9706 20 11C20 6.02944 15.9705 2 10.9998 2ZM11.0002 6C11.5525 6 12.0002 6.44772 12.0002 7V11C12.0002 11.5523 11.5525 12 11.0002 12C10.4479 12 10.0002 11.5523 10.0002 11V7C10.0002 6.44772 10.4479 6 11.0002 6ZM0 13C0 12.4477 0.447724 12 1.00002 12H6.00012C6.55242 12 7.00014 12.4477 7.00014 13C7.00014 13.5523 6.55242 14 6.00012 14H1.00002C0.447724 14 0 13.5523 0 13ZM2.00004 16C2.00004 15.4477 2.44776 15 3.00006 15H8.00016C8.55246 15 9.00018 15.4477 9.00018 16C9.00018 16.5523 8.55246 17 8.00016 17H3.00006C2.44776 17 2.00004 16.5523 2.00004 16Z" fill="#B12EFF"/>
</svg>
