<svg width="20" height="26" viewBox="0 0 20 26" fill="none" xmlns="http://www.w3.org/2000/svg">
<path d="M18.9369 10.8788C19.5904 10.266 20 9.39573 20 8.4312C20 6.58035 18.4941 5.07457 16.6433 5.07457H15.8042V4.23546C15.8042 2.38461 14.2984 0.878784 12.4475 0.878784C11.483 0.878784 10.6128 1.2883 9.99995 1.94185C9.38712 1.2883 8.51695 0.878784 7.55241 0.878784C5.70156 0.878784 4.19583 2.38461 4.19583 4.23546V5.07457H3.35668C1.50582 5.07457 0 6.58039 0 8.43125C0 9.39578 0.409517 10.266 1.06312 10.8788C0.409517 11.4917 0 12.3619 0 13.3264C0 15.1773 1.50582 16.683 3.35668 16.683H4.19583V17.5222C4.19583 19.3731 5.70166 20.8789 7.55251 20.8789C8.23258 20.8789 8.86558 20.675 9.39493 20.3261C9.59403 21.1978 9.88774 22.0018 10.2664 22.6962C11.1194 24.2599 12.3162 25.1212 13.6363 25.1212V23.303C12.8032 23.303 11.9087 22.3164 11.3795 20.7036C11.7153 20.8166 12.0741 20.8788 12.4475 20.8788C14.2984 20.8788 15.8041 19.373 15.8041 17.5221V16.683H16.6433C18.4942 16.683 20 15.1772 20 13.3263C20 12.3618 19.5904 11.4916 18.9369 10.8788ZM9.09086 17.5221C9.09086 18.3704 8.40066 19.0606 7.55237 19.0606C6.70407 19.0606 6.01387 18.3704 6.01387 17.5221V14.8647H3.35658C2.50829 14.8648 1.81809 14.1747 1.81809 13.3264C1.81809 12.4781 2.50829 11.7879 3.35658 11.7879H9.09081L9.09086 17.5221ZM9.09086 9.96969H3.35663C2.50833 9.96969 1.81813 9.27949 1.81813 8.4312C1.81813 7.5829 2.50833 6.8927 3.35663 6.8927H6.01401V4.23546C6.01401 3.38716 6.70412 2.69697 7.55246 2.69697C8.40071 2.69697 9.09091 3.38716 9.09091 4.23546V9.96969H9.09086ZM16.6433 14.8649H13.9859V17.5222C13.9859 18.3705 13.2958 19.0607 12.4475 19.0607C11.5992 19.0606 10.909 18.3704 10.909 17.5222V11.7879H16.6433C17.4916 11.7879 18.1818 12.4781 18.1818 13.3264C18.1818 14.1747 17.4916 14.8649 16.6433 14.8649ZM16.6433 9.96969H10.909V4.23546C10.909 3.38716 11.5992 2.69697 12.4475 2.69697C13.2958 2.69697 13.986 3.38716 13.986 4.23546L13.9859 6.89285H16.6433C17.4916 6.89285 18.1818 7.58295 18.1818 8.43129C18.1818 9.27949 17.4916 9.96969 16.6433 9.96969Z" fill="#B12EFF"/>
</svg>
