<svg width="20" height="20" viewBox="0 0 20 20" fill="none" xmlns="http://www.w3.org/2000/svg">
<path d="M14.8727 6.64098C15.1599 6.93031 15.1599 7.39941 14.8727 7.68873L8.42433 14.1848C8.13713 14.4741 7.67148 14.4741 7.38428 14.1848L4.88814 11.6702C4.60094 11.3809 4.60094 10.9118 4.88814 10.6224L5.09615 10.4129C5.38336 10.1236 5.84901 10.1236 6.13621 10.4129L7.90431 12.1941L13.6246 6.43143C13.9118 6.14211 14.3775 6.14211 14.6647 6.43143L14.8727 6.64098Z" fill="#B12EFF"/>
<path fill-rule="evenodd" clip-rule="evenodd" d="M11.5191 0.454151C10.5956 -0.151384 9.40444 -0.151384 8.48088 0.454151L7.52396 1.08157C7.43264 1.14144 7.32588 1.17302 7.21692 1.17239L6.07519 1.16575C4.97328 1.15935 3.97124 1.80808 3.51927 2.82049L3.05097 3.86949C3.00628 3.9696 2.93342 4.0543 2.84142 4.11311L1.87737 4.72936C0.946944 5.32412 0.452134 6.41562 0.615246 7.51347L0.784252 8.651C0.800381 8.75956 0.784548 8.8705 0.738712 8.97008L0.258426 10.0136C-0.20511 11.0207 -0.0355947 12.2084 0.690811 13.0431L1.44347 13.908C1.51529 13.9906 1.56151 14.0925 1.5764 14.2012L1.73236 15.3407C1.88289 16.4403 2.66291 17.3472 3.72198 17.6538L4.81932 17.9715C4.92404 18.0018 5.01764 18.0624 5.08852 18.1457L5.83121 19.0193C6.54801 19.8625 7.69088 20.2005 8.74637 19.8816L9.84 19.5512C9.94437 19.5197 10.0556 19.5197 10.16 19.5512L11.2536 19.8816C12.3091 20.2005 13.452 19.8625 14.1688 19.0193L14.9115 18.1457C14.9824 18.0624 15.076 18.0018 15.1807 17.9715L16.278 17.6538C17.3371 17.3472 18.1171 16.4403 18.2676 15.3407L18.4236 14.2012C18.4385 14.0925 18.4847 13.9906 18.5565 13.908L19.3092 13.0431C20.0356 12.2084 20.2051 11.0207 19.7416 10.0136L19.2613 8.97008C19.2154 8.8705 19.1996 8.75956 19.2157 8.651L19.3847 7.51347C19.5479 6.41562 19.0531 5.32412 18.1226 4.72936L17.1586 4.11311C17.0666 4.0543 16.9937 3.9696 16.949 3.86949L16.4807 2.82049C16.0288 1.80808 15.0267 1.15935 13.9248 1.16575L12.7831 1.17239C12.6741 1.17302 12.5674 1.14144 12.476 1.08157L11.5191 0.454151ZM9.69617 2.33521C9.88089 2.21411 10.1191 2.21411 10.3038 2.33521L11.2607 2.96263C11.7174 3.26202 12.2511 3.4199 12.7959 3.41673L13.9377 3.4101C14.158 3.40882 14.3584 3.53856 14.4488 3.74104L14.9171 4.79004C15.1406 5.29059 15.5049 5.71412 15.9649 6.00818L16.929 6.62443C17.115 6.74338 17.214 6.96168 17.1814 7.18125L17.0124 8.31878C16.9317 8.86157 17.0109 9.41628 17.2401 9.9142L17.7204 10.9577C17.8131 11.1591 17.7792 11.3966 17.6339 11.5636L16.8812 12.4285C16.5221 12.8412 16.291 13.351 16.2166 13.8947L16.0606 15.0341C16.0305 15.254 15.8745 15.4354 15.6627 15.4967L14.5654 15.8144C14.0417 15.966 13.5737 16.2689 13.2193 16.6858L12.4767 17.5594C12.3333 17.728 12.1047 17.7956 11.8936 17.7318L10.8 17.4014C10.2781 17.2438 9.72185 17.2438 9.2 17.4014L8.10637 17.7318C7.89528 17.7956 7.6667 17.728 7.52334 17.5594L6.78064 16.6858C6.42625 16.2689 5.95826 15.966 5.43464 15.8144L4.3373 15.4967C4.12549 15.4354 3.96949 15.254 3.93938 15.0341L3.78342 13.8947C3.70899 13.351 3.4779 12.8412 3.11876 12.4285L2.3661 11.5636C2.22082 11.3966 2.18692 11.1591 2.27962 10.9577L2.75991 9.9142C2.98909 9.41628 3.06826 8.86157 2.98761 8.31878L2.81861 7.18125C2.78598 6.96168 2.88495 6.74338 3.07103 6.62443L4.03508 6.00818C4.4951 5.71412 4.85939 5.29059 5.08285 4.79004L5.55115 3.74104C5.64154 3.53856 5.84195 3.40882 6.06234 3.4101L7.20407 3.41673C7.74887 3.4199 8.28263 3.26202 8.73925 2.96263L9.69617 2.33521Z" fill="#B12EFF"/>
</svg>
