<svg width="20" height="20" viewBox="0 0 20 20" fill="none" xmlns="http://www.w3.org/2000/svg">
<path d="M9.99831 20C10.2635 19.9999 10.5177 19.8946 10.7052 19.707L19.7039 10.7084C19.8059 10.6064 19.8846 10.4835 19.9347 10.3482C19.9847 10.2129 20.0049 10.0683 19.9938 9.92449L19.3509 1.56872C19.3328 1.33069 19.2301 1.10701 19.0614 0.938118C18.8926 0.769224 18.6691 0.666267 18.4311 0.64786L10.0753 0.00295551C9.93145 -0.00812885 9.78691 0.012047 9.6516 0.0620979C9.51629 0.112149 9.39342 0.190889 9.29141 0.292913L0.292743 9.29158C0.1053 9.47908 0 9.73335 0 9.99848C0 10.2636 0.1053 10.5179 0.292743 10.7054L9.29141 19.704C9.38399 19.7974 9.49408 19.8717 9.61538 19.9224C9.73668 19.9732 9.86681 19.9996 9.99831 20ZM10.3803 2.03466L17.4232 2.57657L17.9651 9.61953L9.99831 17.5864L2.41343 10.0015L10.3803 2.03466ZM12.4409 7.55884C12.1612 7.2792 11.9707 6.92289 11.8935 6.53497C11.8163 6.14704 11.8559 5.74494 12.0072 5.37951C12.1585 5.01407 12.4148 4.70173 12.7437 4.48197C13.0726 4.26221 13.4592 4.14492 13.8547 4.14492C14.2503 4.14492 14.6369 4.26221 14.9658 4.48197C15.2946 4.70173 15.5509 5.01407 15.7023 5.37951C15.8536 5.74494 15.8932 6.14704 15.816 6.53497C15.7388 6.92289 15.5483 7.2792 15.2685 7.55884C14.8935 7.93373 14.385 8.14433 13.8547 8.14433C13.3245 8.14433 12.8159 7.93373 12.4409 7.55884Z" fill="#B12EFF"/>
</svg>
