<svg width="24" height="24" viewBox="0 0 24 24" fill="none" xmlns="http://www.w3.org/2000/svg">
<path fill-rule="evenodd" clip-rule="evenodd" d="M9.41643 4.86831C9.52773 4.42314 9.92771 4.11084 10.3866 4.11084H13.6127C14.0716 4.11084 14.4716 4.42314 14.5829 4.8683L15.1634 7.19025H8.83595L9.41643 4.86831ZM6.7744 7.19025L7.47615 4.38323C7.81002 3.04773 9.00997 2.11084 10.3866 2.11084H13.6127C14.9893 2.11084 16.1893 3.04773 16.5232 4.38323L17.2249 7.19025H20.2537H21.3587L21.2487 8.28976L20.159 19.1873C20.0056 20.7209 18.7151 21.8888 17.1739 21.8888H6.82544C5.28419 21.8888 3.99369 20.7209 3.84033 19.1873L2.75058 8.28975L2.64062 7.19025H3.74561H6.7744ZM4.8506 9.19025L5.8304 18.9883C5.88152 19.4995 6.31169 19.8888 6.82544 19.8888H17.1739C17.6876 19.8888 18.1178 19.4995 18.1689 18.9883L19.1487 9.19025H4.8506ZM8.25 11.9998C8.25 11.5855 8.58579 11.2498 9 11.2498H15C15.4142 11.2498 15.75 11.5855 15.75 11.9998C15.75 12.414 15.4142 12.7498 15 12.7498H9C8.58579 12.7498 8.25 12.414 8.25 11.9998ZM9.25 16.9998C9.25 16.5855 9.58579 16.2498 10 16.2498H12H14C14.4142 16.2498 14.75 16.5855 14.75 16.9998C14.75 17.414 14.4142 17.7498 14 17.7498H12H10C9.58579 17.7498 9.25 17.414 9.25 16.9998Z" fill="#EBEBEB"/>
</svg>
