<svg width="24" height="24" viewBox="0 0 24 24" fill="none" xmlns="http://www.w3.org/2000/svg">
<path d="M21.941 7.54545H2.05901C2.13336 6.71811 2.30139 6.16121 2.68115 5.74555C3.36229 5 4.45858 5 6.65116 5H17.3488C19.5414 5 20.6377 5 21.3189 5.74555C21.6986 6.16121 21.8666 6.71811 21.941 7.54545Z" fill="#EBEBEB"/>
<path fill-rule="evenodd" clip-rule="evenodd" d="M2 10.0909H22V13.9091C22 16.309 22 17.5089 21.3189 18.2545C20.6377 19 19.5414 19 17.3488 19H6.65116C4.45858 19 3.36229 19 2.68115 18.2545C2 17.5089 2 16.309 2 13.9091V10.0909ZM4.55814 12.1273C4.4297 12.1273 4.32558 12.2412 4.32558 12.3818V14.9273C4.32558 15.0679 4.4297 15.1818 4.55814 15.1818H8.04651C8.17495 15.1818 8.27907 15.0679 8.27907 14.9273V12.3818C8.27907 12.2412 8.17495 12.1273 8.04651 12.1273H4.55814Z" fill="#EBEBEB"/>
</svg>
