<svg width="24" height="24" viewBox="0 0 24 24" fill="none" xmlns="http://www.w3.org/2000/svg">
<path d="M12 3.5C7.3128 3.5 3.5 7.31317 3.5 12C3.5 16.6868 7.3128 20.5 12 20.5C16.6872 20.5 20.5 16.6868 20.5 12C20.5 7.31317 16.6872 3.5 12 3.5ZM10.5217 6.45652H11.2609V7.56522H12V6.45652H12.7391V7.57099C13.5019 7.60499 15.2893 7.85991 15.2893 9.7458C15.2893 11.261 13.9954 11.6677 13.7367 11.7416V11.7784C14.291 11.8523 15.622 12.3693 15.622 13.9215C15.622 16.1677 13.5895 16.4079 12.7391 16.4319V17.5435H12V16.4348H11.2609V17.5435H10.5217V16.4348H8.67391V7.56522H10.5217V6.45652ZM9.5242 8.26754V11.4457H12.4432C12.7758 11.4457 13.0716 11.4084 13.3303 11.3345C13.589 11.2606 13.7742 11.1503 13.959 11.0025C14.1068 10.8546 14.2546 10.7065 14.3285 10.5217C14.4025 10.337 14.439 10.1523 14.439 9.93058C14.439 8.82188 13.7736 8.26754 12.4432 8.26754H9.5242ZM9.5242 12.1848V15.7325H12.4432C12.7758 15.7325 13.0716 15.6958 13.3303 15.6588C13.6259 15.6219 13.8477 15.5107 14.0694 15.3629C14.2912 15.2151 14.4391 15.0303 14.587 14.8086C14.6978 14.5868 14.7717 14.291 14.7717 13.9215C14.7717 13.3671 14.5871 12.9236 14.1806 12.628C13.7741 12.3323 13.1823 12.1848 12.4432 12.1848H9.5242Z" fill="#EBEBEB"/>
</svg>
