<svg width="26" height="20" viewBox="0 0 26 20" fill="none" xmlns="http://www.w3.org/2000/svg">
<path d="M22.0101 1.65789C20.3529 0.890525 18.5759 0.325167 16.7179 0.00135861C16.6841 -0.00489206 16.6503 0.0107292 16.6328 0.0419611C16.4042 0.452182 16.1511 0.987351 15.9738 1.408C13.9754 1.10606 11.9873 1.10606 10.0298 1.408C9.85253 0.978002 9.59017 0.452182 9.36061 0.0419611C9.34317 0.0117728 9.30938 -0.00384849 9.27554 0.00135861C7.41856 0.324134 5.64152 0.889492 3.98334 1.65789C3.96898 1.66413 3.95669 1.67456 3.94852 1.68808C0.577841 6.77013 -0.345529 11.7273 0.107445 16.6229C0.109494 16.6469 0.122817 16.6698 0.141264 16.6844C2.36514 18.3326 4.51935 19.3331 6.63355 19.9963C6.66738 20.0068 6.70324 19.9943 6.72476 19.9661C7.22488 19.2769 7.67068 18.5502 8.05293 17.7859C8.07548 17.7412 8.05395 17.688 8.00784 17.6704C7.30072 17.3997 6.62739 17.0696 5.9797 16.6948C5.92847 16.6646 5.92436 16.5906 5.9715 16.5553C6.10779 16.4522 6.24413 16.3449 6.37428 16.2366C6.39782 16.2169 6.43064 16.2127 6.45832 16.2252C10.7134 18.1857 15.3199 18.1857 19.5249 16.2252C19.5525 16.2116 19.5853 16.2158 19.6099 16.2356C19.74 16.3438 19.8764 16.4522 20.0137 16.5553C20.0608 16.5906 20.0578 16.6646 20.0065 16.6948C19.3588 17.0768 18.6855 17.3997 17.9774 17.6693C17.9313 17.687 17.9107 17.7412 17.9333 17.7859C18.3238 18.5491 18.7696 19.2759 19.2605 19.9651C19.2809 19.9943 19.3179 20.0068 19.3517 19.9963C21.4761 19.3331 23.6303 18.3326 25.8542 16.6844C25.8737 16.6698 25.886 16.6479 25.8881 16.624C26.4302 10.9641 24.98 6.04756 22.0439 1.68913C22.0367 1.67456 22.0245 1.66413 22.0101 1.65789ZM8.68834 13.642C7.40728 13.642 6.35172 12.4551 6.35172 10.9973C6.35172 9.53965 7.38681 8.35277 8.68834 8.35277C10.0001 8.35277 11.0454 9.55009 11.025 10.9973C11.025 12.4551 9.98985 13.642 8.68834 13.642ZM17.3276 13.642C16.0466 13.642 14.991 12.4551 14.991 10.9973C14.991 9.53965 16.0261 8.35277 17.3276 8.35277C18.6394 8.35277 19.6847 9.55009 19.6642 10.9973C19.6642 12.4551 18.6394 13.642 17.3276 13.642Z" fill="#EBEBEB"/>
</svg>
