<svg width="26" height="18" viewBox="0 0 26 18" fill="none" xmlns="http://www.w3.org/2000/svg">
<path d="M0.551828 0.537967C0 1.07593 0 1.94178 0 3.67347V3.96976L12.4345 8.874C12.7971 9.017 13.2025 9.017 13.5651 8.874L26 3.9696V3.67347C26 1.94178 26 1.07593 25.4482 0.537967C24.8963 0 24.0082 0 22.2319 0H3.76812C1.99181 0 1.10366 0 0.551828 0.537967Z" fill="#EBEBEB"/>
<path d="M26 6.34723L14.413 10.9172C13.5065 11.2747 12.493 11.2747 11.5866 10.9172L0 6.34739V14.3265C0 16.0582 0 16.9241 0.551828 17.462C1.10366 18 1.99181 18 3.76812 18H22.2319C24.0082 18 24.8963 18 25.4482 17.462C26 16.9241 26 16.0582 26 14.3265V6.34723Z" fill="#EBEBEB"/>
</svg>
