<svg width="26" height="22" viewBox="0 0 26 22" fill="none" xmlns="http://www.w3.org/2000/svg">
<path fill-rule="evenodd" clip-rule="evenodd" d="M23.3056 0.15377C24.7128 -0.433079 26.2214 0.745474 25.9729 2.2376L23.0381 19.8618C22.7551 21.5611 20.8707 22.5362 19.2967 21.6893C17.9795 20.9807 16.0253 19.8901 14.2641 18.7503C13.3846 18.1811 10.6917 16.356 11.0227 15.0568C11.3057 13.9459 15.8328 9.77209 18.4198 7.28989C19.436 6.31486 18.9732 5.75158 17.7731 6.64932C14.796 8.87632 10.0163 12.2622 8.43566 13.2151C7.0411 14.0558 6.31297 14.1993 5.44445 14.0558C3.85845 13.7941 2.38804 13.3887 1.18757 12.8959C-0.434951 12.2297 -0.355918 10.0213 1.18647 9.37814L23.3056 0.15377Z" fill="#EBEBEB"/>
</svg>
