<svg width="28" height="28" viewBox="0 0 28 28" fill="none" xmlns="http://www.w3.org/2000/svg">
<g clip-path="url(#clip0_2266_2)">
<path d="M27.5811 17.3886C25.7111 24.8895 18.1139 29.4544 10.6121 27.584C3.1134 25.7139 -1.45151 18.1163 0.419326 10.616C2.28852 3.11422 9.88573 -1.45104 17.3852 0.418975C24.8865 2.28899 29.4511 9.8875 27.5809 17.3888L27.581 17.3886H27.5811Z" fill="#F7931A"/>
<path d="M20.1737 12.0067C20.4524 10.1434 19.0338 9.14178 17.094 8.47362L17.7233 5.94961L16.1869 5.56676L15.5743 8.02432C15.1703 7.92358 14.7555 7.82865 14.3433 7.73455L14.9603 5.26077L13.4248 4.87793L12.7952 7.40112C12.4609 7.32501 12.1326 7.2498 11.8141 7.17055L11.8159 7.16261L9.69711 6.63351L9.2884 8.27453C9.2884 8.27453 10.4283 8.53583 10.4043 8.55191C11.0265 8.70719 11.139 9.11906 11.1203 9.44551L10.4035 12.3209C10.4463 12.3318 10.5019 12.3476 10.5632 12.3722C10.5119 12.3595 10.4574 12.3456 10.4008 12.332L9.39605 16.3601C9.32001 16.5491 9.12702 16.8328 8.69202 16.7251C8.70742 16.7474 7.57532 16.4464 7.57532 16.4464L6.8125 18.2051L8.81193 18.7036C9.18389 18.7969 9.54839 18.8945 9.90735 18.9862L9.27156 21.5392L10.8062 21.922L11.4359 19.3962C11.8551 19.51 12.262 19.615 12.6603 19.7139L12.0328 22.2279L13.5693 22.6107L14.205 20.0626C16.825 20.5584 18.795 20.3585 19.6242 17.9887C20.2923 16.0808 19.5909 14.9803 18.2126 14.2627C19.2165 14.0312 19.9727 13.3709 20.1743 12.0069L20.1738 12.0065L20.1737 12.0067ZM16.6633 16.9292C16.1885 18.8371 12.9761 17.8057 11.9346 17.5471L12.7783 14.1649C13.8198 14.4249 17.1596 14.9394 16.6634 16.9292H16.6633ZM17.1385 11.979C16.7053 13.7145 14.0317 12.8328 13.1643 12.6166L13.9293 9.54912C14.7966 9.76532 17.5897 10.1688 17.1386 11.979H17.1385Z" fill="white"/>
</g>
<defs>
<clipPath id="clip0_2266_2">
<rect width="28" height="28.0031" fill="white"/>
</clipPath>
</defs>
</svg>
