<svg width="28" height="25" viewBox="0 0 28 25" fill="none" xmlns="http://www.w3.org/2000/svg">
<g clip-path="url(#clip0_4193_6014)">
<path fill-rule="evenodd" clip-rule="evenodd" d="M5.12637 0.119628L0.0209894 10.8435C0.00156192 10.8834 -0.00459451 10.9284 0.00342038 10.9721C0.0114353 11.0157 0.033201 11.0556 0.0655346 11.086L13.8539 24.2986C13.8931 24.3362 13.9453 24.3572 13.9995 24.3572C14.0538 24.3572 14.106 24.3362 14.1451 24.2986L27.9336 11.0868C27.9659 11.0565 27.9876 11.0165 27.9957 10.9729C28.0037 10.9293 27.9975 10.8842 27.9781 10.8443L22.8727 0.120453C22.8562 0.0844379 22.8297 0.0539284 22.7964 0.032571C22.763 0.0112136 22.7242 -8.83471e-05 22.6846 1.5964e-05H5.3161C5.27631 -0.000479117 5.23722 0.0105506 5.20355 0.0317745C5.16989 0.0529984 5.14308 0.0835099 5.12637 0.119628V0.119628V0.119628Z" fill="#50AF95"/>
<path fill-rule="evenodd" clip-rule="evenodd" d="M15.7711 11.945C15.6721 11.9524 15.1606 11.9829 14.0198 11.9829C13.1124 11.9829 12.4681 11.9557 12.2421 11.945C8.7354 11.7907 6.11795 11.1803 6.11795 10.4494C6.11795 9.71852 8.7354 9.10891 12.2421 8.95217V11.337C12.4714 11.3535 13.1281 11.3923 14.0355 11.3923C15.1243 11.3923 15.6696 11.3469 15.7678 11.3378V8.95382C19.2671 9.10973 21.8787 9.72017 21.8787 10.4494C21.8787 11.1786 19.2679 11.789 15.7678 11.9441L15.7711 11.945ZM15.7711 8.70718V6.57313H20.6546V3.31885H7.35862V6.57313H12.2413V8.70635C8.27262 8.88866 5.28809 9.6748 5.28809 10.6168C5.28809 11.5589 8.27262 12.3442 12.2413 12.5273V19.3659H15.7702V12.5249C19.7298 12.3426 22.7094 11.5572 22.7094 10.616C22.7094 9.6748 19.7323 8.88948 15.7702 8.70635L15.7711 8.70718Z" fill="white"/>
</g>
<defs>
<clipPath id="clip0_4193_6014">
<rect width="28" height="24.3572" fill="white"/>
</clipPath>
</defs>
</svg>
